<svg width="308" height="308" viewBox="0 0 308 308" fill="none" xmlns="http://www.w3.org/2000/svg">
<g filter="url(#filter0_d_9_34)">
<path d="M4 28C4 12.536 16.536 0 32 0H276C291.464 0 304 12.536 304 28V272C304 287.464 291.464 300 276 300H32C16.536 300 4 287.464 4 272V28Z" fill="url(#paint0_linear_9_34)"/>
<path d="M4 28C4 12.536 16.536 0 32 0H276C291.464 0 304 12.536 304 28V272C304 287.464 291.464 300 276 300H32C16.536 300 4 287.464 4 272V28Z" fill="url(#paint1_linear_9_34)"/>
</g>
<circle cx="40" cy="39" r="18" fill="white"/>
<path d="M135.16 231.96C137.187 233.56 140.653 235.747 145.56 238.52C150.573 241.293 155.32 242.68 159.8 242.68C164.387 242.68 166.68 240.92 166.68 237.4C166.68 235.8 166.04 234.413 164.76 233.24C163.48 231.96 161.133 230.52 157.72 228.92C154.307 227.32 151.747 226.093 150.04 225.24C148.333 224.28 146.04 222.787 143.16 220.76C140.387 218.627 138.253 216.44 136.76 214.2C132.493 208.12 130.36 200.387 130.36 191C130.36 181.613 133.827 173.72 140.76 167.32C147.8 160.813 156.973 157.56 168.28 157.56C175.96 157.56 183.053 158.413 189.56 160.12C196.067 161.72 199.427 163.853 199.64 166.52C199.64 166.84 199.64 167.16 199.64 167.48C199.64 171.213 198.467 175.96 196.12 181.72C193.773 187.373 192.12 190.52 191.16 191.16C184.333 187.64 178.2 185.88 172.76 185.88C167.427 185.88 164.76 187.8 164.76 191.64C164.76 193.987 166.733 196.067 170.68 197.88C171.533 198.307 172.76 198.893 174.36 199.64C175.96 200.387 177.773 201.293 179.8 202.36C181.933 203.32 184.173 204.6 186.52 206.2C188.973 207.693 191.587 209.72 194.36 212.28C200.013 217.613 202.84 224.653 202.84 233.4C202.84 244.813 199.693 254.147 193.4 261.4C187.107 268.653 177.4 272.387 164.28 272.6C157.88 272.6 152.067 272.067 146.84 271C141.72 269.933 137.24 267.853 133.4 264.76C129.56 261.667 127.64 257.933 127.64 253.56C127.64 249.187 128.44 244.867 130.04 240.6C131.64 236.227 133.347 233.347 135.16 231.96ZM214.4 261.56V162.04C214.4 159.8 219.787 158.68 230.56 158.68C241.44 158.68 246.88 159.8 246.88 162.04V240.44H271.52C273.44 240.44 274.773 242.947 275.52 247.96C275.84 250.413 276 252.92 276 255.48C276 258.04 275.84 260.653 275.52 263.32C274.667 268.44 273.28 271 271.36 271H222.08C219.733 271 217.867 270.04 216.48 268.12C215.093 266.2 214.4 264.013 214.4 261.56Z" fill="white"/>
<defs>
<filter id="filter0_d_9_34" x="0" y="0" width="308" height="308" filterUnits="userSpaceOnUse" color-interpolation-filters="sRGB">
<feFlood flood-opacity="0" result="BackgroundImageFix"/>
<feColorMatrix in="SourceAlpha" type="matrix" values="0 0 0 0 0 0 0 0 0 0 0 0 0 0 0 0 0 0 127 0" result="hardAlpha"/>
<feOffset dy="4"/>
<feGaussianBlur stdDeviation="2"/>
<feComposite in2="hardAlpha" operator="out"/>
<feColorMatrix type="matrix" values="0 0 0 0 0 0 0 0 0 0 0 0 0 0 0 0 0 0 0.25 0"/>
<feBlend mode="normal" in2="BackgroundImageFix" result="effect1_dropShadow_9_34"/>
<feBlend mode="normal" in="SourceGraphic" in2="effect1_dropShadow_9_34" result="shape"/>
</filter>
<linearGradient id="paint0_linear_9_34" x1="154" y1="-1.89245e-06" x2="154" y2="300" gradientUnits="userSpaceOnUse">
<stop stop-color="#6992DD"/>
<stop offset="1" stop-color="#7654C4"/>
</linearGradient>
<linearGradient id="paint1_linear_9_34" x1="154" y1="-1.89245e-06" x2="154" y2="300" gradientUnits="userSpaceOnUse">
<stop stop-color="#6992DD"/>
<stop offset="1" stop-color="#7654C4"/>
</linearGradient>
</defs>
</svg>
